<?xml version="1.0" encoding="UTF-8"?>
<svg width="500" height="500" viewBox="0 0 500 500" xmlns="http://www.w3.org/2000/svg">
  <rect width="500" height="500" fill="#1D0D00"/>
  <polygon points="442,250 346,416.2 154,416.2 58,250 154,83.8 346,83.8" fill="none" stroke="#BFA030" stroke-width="1.6"/>
  <polygon points="430,250 340,404.6 160,404.6 70,250 160,95.4 340,95.4" fill="none" stroke="#BFA030" stroke-width="0.9"/>
  <g transform="translate(231, 220) scale(1.5)">
    <path fill="#BFA030" d="M35 19c0-2.062-.367-4.039-1.04-5.868-.46 5.389-3.333 8.157-6.335 6.868-2.812-1.208-.917-5.917-.777-8.164.236-3.809-.012-8.169-6.931-11.794 2.875 5.5.333 8.917-2.333 9.125-2.958.231-5.667-2.542-4.667-7.042-3.238 2.386-3.332 6.402-2.333 9 1.042 2.708-.042 4.958-2.583 5.208-2.84.28-4.418-3.041-2.963-8.333C2.52 10.965 1 14.805 1 19c0 9.389 7.611 17 17 17s17-7.611 17-17z"/>
    <path fill="#E0C060" d="M28.394 23.999c.148 3.084-2.561 4.293-4.019 3.709-2.106-.843-1.541-2.291-2.083-5.291s-2.625-5.083-5.708-6 2.25 6.333-1.247 8.667-3.08 9.084-1.872.426-3.753-.001-3.968-4.007C7.352 23.668 6 26.676 6 30c0 .368.023.73.055 1.09C9.125 34.124 13.342 36 18 36s8.875-1.876 11.945-4.91c.032-.36.055-.722.055-1.09 0-2.187-.584-4.236-1.606-6.001z"/>
  </g>
  <g fill="#f5edd5">
    <g transform="translate(180.352, 283) scale(0.118, -0.118)">
      <path d="M-38 -8Q4 78 49.5 172.5Q95 267 143.0 363.0Q191 459 238 546Q255 576 269.5 593.0Q284 610 308 610Q317 610 329.0 607.0Q341 604 352 606Q339 592 316.5 557.0Q294 522 266.5 473.0Q239 424 208.5 367.5Q178 311 148.5 253.5Q119 196 94 146Q114 172 135.0 195.0Q156 218 176 235Q198 255 231.5 277.0Q265 299 298.5 315.0Q332 331 352 331Q359 331 362 330Q362 330 351.0 310.0Q340 290 323.5 259.0Q307 228 289.5 192.0Q272 156 259.0 123.5Q246 91 242 70Q239 54 239 43Q239 27 245.0 21.5Q251 16 258 16Q275 16 294.5 33.5Q314 51 333.0 78.0Q352 105 368.5 135.5Q385 166 395 193Q407 193 407 184Q396 157 379.5 124.5Q363 92 342.0 63.0Q321 34 296.0 15.0Q271 -4 243 -4Q223 -4 202.0 10.0Q181 24 181 61Q181 72 183.0 84.5Q185 97 190 113Q196 133 210.0 157.5Q224 182 246 219Q256 236 256 246Q256 258 244 258Q234 258 217.0 248.0Q200 238 174 213Q149 189 112.0 143.0Q75 97 33 14Q26 1 17.5 0.5Q9 0 -5 -1Q-14 -2 -23.0 -2.5Q-32 -3 -38 -8Z"/>
    </g>
    <g transform="translate(284, 283) scale(0.118, -0.118)">
      <path d="M-65 -351Q-87 -351 -103.5 -340.0Q-120 -329 -120 -297Q-120 -247 -90.0 -161.0Q-60 -75 -17 28Q-29 48 -29 70Q-29 105 -9 118Q8 132 27 129Q63 210 100.0 288.5Q137 367 171.5 437.0Q206 507 234 560Q251 593 269.5 611.0Q288 629 318 629Q327 629 339.5 625.5Q352 622 362 623Q339 601 304.5 549.5Q270 498 230.0 427.0Q190 356 148.5 273.5Q107 191 69 106Q85 86 91.0 66.0Q97 46 104 18Q134 16 161.5 43.0Q189 70 212.5 111.0Q236 152 253 193Q265 193 265 184Q248 142 224.5 99.0Q201 56 171.5 26.5Q142 -3 106 -5V-31Q106 -83 93.5 -139.0Q81 -195 58.0 -243.0Q35 -291 4.0 -321.0Q-27 -351 -65 -351ZM77 14H82Q81 34 74.0 53.5Q67 73 58 83L37 32Q46 14 77 14ZM-50 -324Q-40 -324 -26.0 -312.5Q-12 -301 1 -283Q26 -250 45.0 -202.0Q64 -154 75.0 -102.0Q86 -50 85 -6Q66 -6 50.5 -1.0Q35 4 26 11Q0 -56 -22.5 -121.5Q-45 -187 -57 -237Q-61 -256 -63.0 -270.0Q-65 -284 -65 -294Q-65 -324 -50 -324Z"/>
    </g>
  </g>
</svg>
