<?xml version="1.0" encoding="UTF-8"?>
<svg width="500" height="500" viewBox="0 0 500 500" xmlns="http://www.w3.org/2000/svg">
  <defs>
    <style>@import url('https://fonts.googleapis.com/css2?family=Great+Vibes&amp;display=swap');</style>
  </defs>
  <rect width="500" height="500" fill="white"/>
  <polygon points="442,250 346,416.2 154,416.2 58,250 154,83.8 346,83.8" fill="none" stroke="#BFA030" stroke-width="1.6"/>
  <polygon points="430,250 340,404.6 160,404.6 70,250 160,95.4 340,95.4" fill="none" stroke="#BFA030" stroke-width="0.9"/>
  <g transform="translate(231, 220) scale(1.5)">
    <path fill="#BFA030" d="M35 19c0-2.062-.367-4.039-1.04-5.868-.46 5.389-3.333 8.157-6.335 6.868-2.812-1.208-.917-5.917-.777-8.164.236-3.809-.012-8.169-6.931-11.794 2.875 5.5.333 8.917-2.333 9.125-2.958.231-5.667-2.542-4.667-7.042-3.238 2.386-3.332 6.402-2.333 9 1.042 2.708-.042 4.958-2.583 5.208-2.84.28-4.418-3.041-2.963-8.333C2.52 10.965 1 14.805 1 19c0 9.389 7.611 17 17 17s17-7.611 17-17z"/>
    <path fill="#E0C060" d="M28.394 23.999c.148 3.084-2.561 4.293-4.019 3.709-2.106-.843-1.541-2.291-2.083-5.291s-2.625-5.083-5.708-6 2.25 6.333-1.247 8.667-3.08 9.084-1.872.426-3.753-.001-3.968-4.007C7.352 23.668 6 26.676 6 30c0 .368.023.73.055 1.09C9.125 34.124 13.342 36 18 36s8.875-1.876 11.945-4.91c.032-.36.055-.722.055-1.09 0-2.187-.584-4.236-1.606-6.001z"/>
  </g>
  <text x="250" y="283" font-family="'Great Vibes', cursive" font-size="118" text-anchor="end"   fill="#1D0D00" dx="-30">h</text>
  <text x="250" y="283" font-family="'Great Vibes', cursive" font-size="118" text-anchor="start" fill="#1D0D00" dx="34">f</text>
</svg>
