<?xml version="1.0" encoding="UTF-8"?>
<svg width="500" height="500" viewBox="0 0 500 500" xmlns="http://www.w3.org/2000/svg">
  <rect width="500" height="500" fill="white"/>
  <polygon points="442,250 346,416.2 154,416.2 58,250 154,83.8 346,83.8" fill="none" stroke="#BFA030" stroke-width="2.4"/>
  <polygon points="430,250 340,404.6 160,404.6 70,250 160,95.4 340,95.4" fill="none" stroke="#BFA030" stroke-width="1.4"/>
  <g transform="translate(231, 220) scale(1.5)">
    <path fill="#c8321a" d="M35 19c0-2.062-.367-4.039-1.04-5.868-.46 5.389-3.333 8.157-6.335 6.868-2.812-1.208-.917-5.917-.777-8.164.236-3.809-.012-8.169-6.931-11.794 2.875 5.5.333 8.917-2.333 9.125-2.958.231-5.667-2.542-4.667-7.042-3.238 2.386-3.332 6.402-2.333 9 1.042 2.708-.042 4.958-2.583 5.208-2.84.28-4.418-3.041-2.963-8.333C2.52 10.965 1 14.805 1 19c0 9.389 7.611 17 17 17s17-7.611 17-17z"/>
    <path fill="#e87830" d="M28.394 23.999c.148 3.084-2.561 4.293-4.019 3.709-2.106-.843-1.541-2.291-2.083-5.291s-2.625-5.083-5.708-6 2.25 6.333-1.247 8.667-3.08 9.084-1.872.426-3.753-.001-3.968-4.007C7.352 23.668 6 26.676 6 30c0 .368.023.73.055 1.09C9.125 34.124 13.342 36 18 36s8.875-1.876 11.945-4.91c.032-.36.055-.722.055-1.09 0-2.187-.584-4.236-1.606-6.001z"/>
  </g>
  <g transform="translate(43.3900, 285) scale(0.118000, -0.118000)" fill="#BFA030"><path d="M308 -173Q250 -173 193.5 -159.5Q137 -146 91.5 -115.0Q46 -84 19.0 -31.5Q-8 21 -8 99Q-8 155 11.0 204.0Q30 253 61.0 283.5Q92 314 127 314Q139 314 139 308Q139 302 126 298Q101 292 77.5 267.5Q54 243 39.0 203.0Q24 163 24 108Q24 42 48.5 0.0Q73 -42 112.0 -66.0Q151 -90 194.5 -99.5Q238 -109 277 -109Q387 -109 478.5 -74.5Q570 -40 643.5 21.0Q717 82 771.5 161.5Q826 241 862 332Q863 335 864 338Q848 337 837.0 335.0Q826 333 816 329Q794 321 783 321Q777 321 777 329Q777 343 791.5 358.5Q806 374 827 375Q835 375 849.5 375.5Q864 376 880 376Q899 424 921.0 475.0Q943 526 964.0 572.0Q985 618 1001.0 652.0Q1017 686 1024 700Q969 694 910.0 689.5Q851 685 794.0 675.5Q737 666 686 645Q592 606 549.5 542.5Q507 479 507 401Q507 352 534.0 320.0Q561 288 605 288Q645 288 675.0 312.5Q705 337 722.5 374.5Q740 412 740 449Q740 461 737.5 470.5Q735 480 733 484Q733 491 739 491Q752 491 756.5 472.5Q761 454 761 436Q761 396 739.5 357.0Q718 318 680.5 292.5Q643 267 596 267Q554 267 519.5 288.5Q485 310 464.0 347.0Q443 384 443 429Q443 493 472.0 542.5Q501 592 551.5 627.0Q602 662 665 680Q726 698 791.5 705.0Q857 712 920.5 715.5Q984 719 1037 724Q1047 742 1062.5 761.0Q1078 780 1097.0 793.5Q1116 807 1136 807Q1151 807 1162.0 799.5Q1173 792 1173 776Q1173 752 1154.5 736.5Q1136 721 1108.0 713.0Q1080 705 1053 701Q1042 680 1027.0 642.0Q1012 604 994.5 557.5Q977 511 959.5 463.5Q942 416 927 375Q961 373 1006.5 370.5Q1052 368 1100.0 365.5Q1148 363 1191.5 361.0Q1235 359 1263 359Q1274 387 1286 417Q1348 568 1400.0 655.0Q1452 742 1483 752Q1523 765 1538 765Q1544 765 1544 763Q1544 760 1530 753Q1523 749 1501.5 718.0Q1480 687 1450.0 633.5Q1420 580 1387.0 510.0Q1354 440 1324 358Q1341 358 1358.5 359.0Q1376 360 1385 361Q1396 363 1403.5 366.0Q1411 369 1415 369Q1420 369 1420 364Q1420 361 1412 354Q1395 342 1371.0 333.0Q1347 324 1311 322Q1288 256 1268.0 186.5Q1248 117 1248 58Q1248 36 1256.0 16.0Q1264 -4 1286 -4Q1312 -4 1343.0 24.5Q1374 53 1404.0 98.0Q1434 143 1454 193Q1466 193 1466 184Q1442 129 1409.5 77.0Q1377 25 1338.5 -8.5Q1300 -42 1258 -42Q1225 -42 1204.5 -18.0Q1184 6 1184 53Q1184 99 1202.5 170.0Q1221 241 1250 322Q1220 323 1176.0 325.0Q1132 327 1083.0 329.5Q1034 332 989.0 334.0Q944 336 914 337Q910 325 906.0 314.0Q902 303 899 294Q869 206 815.5 123.0Q762 40 687.5 -27.0Q613 -94 517.5 -133.5Q422 -173 308 -173ZM1072 726Q1082 728 1089.5 730.0Q1097 732 1104 734Q1122 740 1129.5 748.0Q1137 756 1137 762Q1137 774 1123 774Q1116 774 1106.0 768.0Q1096 762 1086 748Q1082 742 1078.5 736.5Q1075 731 1072 726Z"/></g>
  <g transform="translate(292.0000, 285) scale(0.118000, -0.118000)" fill="#e8841a"><path d="M388 -101Q278 -101 196.5 -67.0Q115 -33 70.5 26.5Q26 86 26 162Q26 224 48.0 275.0Q70 326 106.5 360.0Q143 394 187 405Q194 406 194 400Q194 395 189 392Q137 361 109.5 303.0Q82 245 82 174Q82 97 122.0 41.5Q162 -14 231.5 -43.5Q301 -73 388 -73Q463 -73 530.5 -46.5Q598 -20 655.0 26.0Q712 72 757.5 130.5Q803 189 834 253Q841 268 848.0 282.0Q855 296 862 310Q838 311 818.5 312.0Q799 313 792 313Q765 313 734.5 309.5Q704 306 677.5 296.0Q651 286 634 265Q627 258 625.5 254.0Q624 250 621 250Q617 250 614.0 256.5Q611 263 615 271Q638 322 680.0 340.5Q722 359 774 359Q785 359 815.5 355.5Q846 352 880 348Q924 437 960.5 509.0Q997 581 1029 629Q957 653 876.0 671.5Q795 690 702 690Q633 690 577.0 671.0Q521 652 481.5 620.0Q442 588 421.0 549.0Q400 510 400 471Q400 427 417.0 401.0Q434 375 461.5 363.5Q489 352 518 352Q561 352 591.5 373.0Q622 394 640.0 420.5Q658 447 662 464Q666 480 674 480Q686 480 684 466Q678 422 653.0 390.0Q628 358 592.0 341.5Q556 325 516 325Q475 325 437.0 345.0Q399 365 375.0 403.0Q351 441 351 495Q351 539 370.5 582.5Q390 626 429.5 662.5Q469 699 530.0 721.0Q591 743 674 743Q733 743 795.0 729.5Q857 716 920.5 695.5Q984 675 1046 653Q1067 680 1086.0 694.5Q1105 709 1124 709Q1132 709 1135.0 705.5Q1138 702 1138 699Q1138 695 1135.0 690.0Q1132 685 1124 685Q1091 685 1062 648Q1134 624 1200.5 605.5Q1267 587 1324 587Q1368 587 1382.0 596.5Q1396 606 1396 623Q1396 634 1403 634Q1408 634 1412.5 627.5Q1417 621 1417 612Q1417 588 1390.5 573.0Q1364 558 1317 558Q1255 558 1188.0 578.5Q1121 599 1046 624Q1019 579 993.0 506.5Q967 434 932 343Q975 339 1023.0 336.5Q1071 334 1101 334Q1111 334 1111 328Q1111 320 1088 314Q1073 310 1037.5 308.0Q1002 306 964 306Q956 306 944.0 306.5Q932 307 918 307Q909 284 899.5 260.5Q890 237 879 212Q837 113 776.5 51.5Q716 -10 647.5 -43.5Q579 -77 511.5 -89.0Q444 -101 388 -101Z"/></g>
</svg>
